<svg width="42" height="42" viewBox="0 0 42 42" fill="none" xmlns="http://www.w3.org/2000/svg">
<path d="M22.7592 0.100633C26.457 0.481742 30.3093 2.03708 33.2655 4.34434C34.2543 5.11685 35.8715 6.71339 36.6646 7.71252C37.6637 8.96915 38.3435 10.0507 39.0954 11.5751C41.8868 17.2506 41.8868 23.9148 39.0954 29.6006C37.0251 33.8031 33.8114 37.027 29.6089 39.0871C23.9541 41.8579 17.3413 41.8785 11.6556 39.1283C3.89948 35.379 -0.745932 27.1388 0.0986877 18.6205C0.727002 12.3167 4.14669 6.7237 9.49251 3.24221C13.2727 0.790751 18.155 -0.362878 22.7592 0.100633ZM17.4649 4.41644C13.7568 5.15806 10.3371 7.16661 8.01958 9.95798C6.14493 12.2137 4.98101 14.6652 4.40419 17.5493C4.09518 19.0634 4.08488 21.9887 4.36299 23.4719C5.51662 29.4976 9.64702 34.2769 15.3946 36.2133C17.2383 36.8313 18.4331 37.0064 20.6477 37.0064C22.2648 37.0064 22.8004 36.9652 23.6863 36.7695C29.7119 35.5026 34.2955 31.4855 36.2217 25.7895C36.8294 23.9766 37.0148 22.7509 37.0148 20.5878C37.0148 19.0222 36.9736 18.4763 36.7882 17.5287C35.3564 10.3803 29.7325 5.12716 22.512 4.21043C21.3687 4.06623 18.6391 4.17953 17.4649 4.41644Z" fill="currentColor"/>
<path d="M26.9308 13.2129C27.3222 13.388 27.8578 13.9545 28.002 14.3356C28.1668 14.7579 28.1359 15.4892 27.9505 15.9321C27.8578 16.1793 26.9926 17.1167 25.5608 18.5484L23.336 20.7939L25.5093 22.9775C27.8784 25.3775 27.9814 25.5423 27.8681 26.5002C27.7239 27.7568 26.5085 28.5499 25.2621 28.21C24.8192 28.0864 24.5205 27.8289 22.5738 25.9028L20.3901 23.7397L18.3507 25.7586C17.2382 26.871 16.1567 27.8598 15.961 27.9525C15.2606 28.313 14.0863 28.0967 13.5816 27.5302C13.046 26.9122 12.8915 25.8925 13.2314 25.223C13.3241 25.0273 14.313 23.9457 15.4254 22.8333L17.4442 20.7939L15.2812 18.6102C13.355 16.6635 13.0975 16.3647 12.9739 15.9218C12.634 14.6755 13.4271 13.4601 14.6838 13.3159C15.6417 13.2026 15.8065 13.3056 18.2064 15.6746L20.3901 17.848L22.6356 15.6231C24.0673 14.1914 25.0046 13.3262 25.2518 13.2335C25.7153 13.0378 26.5085 13.0275 26.9308 13.2129Z" fill="currentColor"/>
</svg>
