<svg width="16" height="8" viewBox="0 0 16 8" fill="none" xmlns="http://www.w3.org/2000/svg">
<path id="Vector" d="M15.9514 0.360764C15.8277 0.103165 15.4838 -0.0542569 15.2055 0.0172983C15.0857 0.0494982 14.4404 0.629096 11.5343 3.31957L8.00605 6.58607L4.48166 3.32673C1.71471 0.76505 0.922495 0.0566531 0.814291 0.0244532C0.493541 -0.0685686 0.0839082 0.160408 0.0220769 0.468096C-0.0436189 0.793672 -0.217519 0.611206 3.88267 4.41079C7.28726 7.5628 7.69302 7.92773 7.84374 7.96351C8.21859 8.05295 7.95967 8.2712 12.0985 4.44657C14.6877 2.05305 15.8818 0.92605 15.932 0.825873C16.0171 0.657718 16.0209 0.51103 15.9514 0.360764Z" fill="#616F82"/>
</svg>
