<svg width="55" height="60" viewBox="0 0 55 60" fill="none" xmlns="http://www.w3.org/2000/svg">
<path d="M9.87754 0.395087L9.48242 0.7744V14.2874V27.8163L25.1133 27.8479C40.6335 27.8953 40.76 27.8953 41.1867 28.2272C41.4238 28.4011 41.7715 28.7488 41.9453 28.9858C42.2772 29.4126 42.2772 29.5706 42.2772 39.5118C42.2772 49.4529 42.2772 49.611 41.9453 50.0377C41.7715 50.2748 41.4238 50.6225 41.1867 50.7963C40.76 51.1282 40.6335 51.1282 25.1133 51.1757L9.48242 51.2073V55.0952V58.9674L9.87754 59.3467L10.2569 59.7418H32.2412H54.2256L54.6049 59.3467L55 58.9674V35.4816V12.0116H49.3893H43.7629L43.3835 11.6164L42.9884 11.2371V5.61065V-3.12924e-05H26.6305H10.2569L9.87754 0.395087Z" fill="currentColor"/>
<path d="M45.5176 5.68966V9.48279H49.3423H53.1829L49.3897 5.68966C47.3035 3.60343 45.5808 1.89652 45.565 1.89652C45.5334 1.89652 45.5176 3.60343 45.5176 5.68966Z" fill="currentColor"/>
<path d="M0 39.5116V48.6783H19.9139H39.8279V39.5116V30.3449H19.9139H0V39.5116Z" fill="currentColor"/>
</svg>
