<svg width="17" height="17" viewBox="0 0 17 17" fill="none" xmlns="http://www.w3.org/2000/svg">
<path fill-rule="evenodd" clip-rule="evenodd" d="M7.16455 2.5C6.75034 2.5 6.41455 2.83579 6.41455 3.25C6.41455 3.66421 6.75034 4 7.16455 4H15.6646C16.0788 4 16.4146 3.66421 16.4146 3.25C16.4146 2.83579 16.0788 2.5 15.6646 2.5H7.16455ZM9.16455 7.95321C8.75034 7.95321 8.41455 8.289 8.41455 8.70321C8.41455 9.11743 8.75034 9.45321 9.16455 9.45321H15.6646C16.0788 9.45321 16.4146 9.11743 16.4146 8.70321C16.4146 8.289 16.0788 7.95321 15.6646 7.95321H9.16455ZM10.4146 14.25C10.4146 13.8358 10.7503 13.5 11.1646 13.5H15.6646C16.0788 13.5 16.4146 13.8358 16.4146 14.25C16.4146 14.6642 16.0788 15 15.6646 15H11.1646C10.7503 15 10.4146 14.6642 10.4146 14.25ZM5.39472 12.7356C5.53509 12.8625 5.53509 13.0666 5.39472 13.1892L3.24817 15.0335C3.11286 15.1604 2.88714 15.1604 2.75151 15.0335L0.605275 13.1892C0.464908 13.0668 0.464908 12.8625 0.605275 12.7356C0.740583 12.613 0.966624 12.613 1.10699 12.7356L2.64624 14.0355L2.64371 3.12582C2.64371 2.9489 2.80431 2.80829 3 2.80829C3.19569 2.80829 3.35123 2.9489 3.35155 3.12582L3.35408 14.0355L4.89807 12.7356C5.03338 12.613 5.2591 12.613 5.39472 12.7356Z" fill="#616F82"/>
<path d="M5.39472 13.1892L5.55765 13.3788L5.55919 13.3775L5.39472 13.1892ZM5.39472 12.7356L5.56238 12.5501H5.56238L5.39472 12.7356ZM3.24817 15.0335L3.08509 14.8437L3.07715 14.8511L3.24817 15.0335ZM2.75151 15.0335L2.92247 14.8508L2.91445 14.8439L2.75151 15.0335ZM0.605275 13.1892L0.441022 13.3776L0.442338 13.3788L0.605275 13.1892ZM0.605275 12.7356L0.77293 12.921L0.773145 12.9209L0.605275 12.7356ZM1.10699 12.7356L0.942502 12.9239L0.945691 12.9266L1.10699 12.7356ZM2.64624 14.0355L2.48494 14.2265L2.89636 14.5739L2.89624 14.0354L2.64624 14.0355ZM2.64371 3.12582H2.39371V3.12588L2.64371 3.12582ZM3.35155 3.12582L3.60155 3.12576L3.60155 3.12537L3.35155 3.12582ZM3.35408 14.0355L3.10408 14.0355L3.1042 14.5726L3.51509 14.2267L3.35408 14.0355ZM4.89807 12.7356L5.05918 12.927L5.06594 12.9209L4.89807 12.7356ZM6.66455 3.25C6.66455 2.97386 6.88841 2.75 7.16455 2.75V2.25C6.61227 2.25 6.16455 2.69772 6.16455 3.25H6.66455ZM7.16455 3.75C6.88841 3.75 6.66455 3.52614 6.66455 3.25H6.16455C6.16455 3.80228 6.61227 4.25 7.16455 4.25V3.75ZM15.6646 3.75H7.16455V4.25H15.6646V3.75ZM16.1646 3.25C16.1646 3.52614 15.9407 3.75 15.6646 3.75V4.25C16.2168 4.25 16.6646 3.80228 16.6646 3.25H16.1646ZM15.6646 2.75C15.9407 2.75 16.1646 2.97386 16.1646 3.25H16.6646C16.6646 2.69772 16.2168 2.25 15.6646 2.25V2.75ZM7.16455 2.75H15.6646V2.25H7.16455V2.75ZM8.66455 8.70321C8.66455 8.42707 8.88841 8.20321 9.16455 8.20321V7.70321C8.61227 7.70321 8.16455 8.15093 8.16455 8.70321H8.66455ZM9.16455 9.20321C8.88841 9.20321 8.66455 8.97935 8.66455 8.70321H8.16455C8.16455 9.2555 8.61227 9.70321 9.16455 9.70321V9.20321ZM15.6646 9.20321H9.16455V9.70321H15.6646V9.20321ZM16.1646 8.70321C16.1646 8.97935 15.9407 9.20321 15.6646 9.20321V9.70321C16.2168 9.70321 16.6646 9.2555 16.6646 8.70321H16.1646ZM15.6646 8.20321C15.9407 8.20321 16.1646 8.42707 16.1646 8.70321H16.6646C16.6646 8.15093 16.2168 7.70321 15.6646 7.70321V8.20321ZM9.16455 8.20321H15.6646V7.70321H9.16455V8.20321ZM11.1646 13.25C10.6123 13.25 10.1646 13.6977 10.1646 14.25H10.6646C10.6646 13.9739 10.8884 13.75 11.1646 13.75V13.25ZM15.6646 13.25H11.1646V13.75H15.6646V13.25ZM16.6646 14.25C16.6646 13.6977 16.2168 13.25 15.6646 13.25V13.75C15.9407 13.75 16.1646 13.9739 16.1646 14.25H16.6646ZM15.6646 15.25C16.2168 15.25 16.6646 14.8023 16.6646 14.25H16.1646C16.1646 14.5261 15.9407 14.75 15.6646 14.75V15.25ZM11.1646 15.25H15.6646V14.75H11.1646V15.25ZM10.1646 14.25C10.1646 14.8023 10.6123 15.25 11.1646 15.25V14.75C10.8884 14.75 10.6646 14.5261 10.6646 14.25H10.1646ZM5.55919 13.3775C5.81553 13.1535 5.81062 12.7746 5.56238 12.5501L5.22707 12.921C5.24644 12.9386 5.25 12.9546 5.25 12.964C5.25 12.9731 5.24682 12.9864 5.23026 13.0009L5.55919 13.3775ZM3.41109 15.2231L5.55765 13.3788L5.2318 12.9995L3.08525 14.8439L3.41109 15.2231ZM2.58071 15.2161C2.81233 15.4328 3.18759 15.4331 3.41919 15.2159L3.07715 14.8511C3.03813 14.8877 2.96194 14.888 2.92232 14.851L2.58071 15.2161ZM0.442338 13.3788L2.58858 15.2231L2.91445 14.8439L0.768212 12.9996L0.442338 13.3788ZM0.43762 12.5501C0.189516 12.7744 0.184269 13.1539 0.441026 13.3776L0.769524 13.0007C0.753218 12.9865 0.75 12.9733 0.75 12.9641C0.75 12.9546 0.753619 12.9385 0.77293 12.921L0.43762 12.5501ZM1.27146 12.5473C1.03866 12.344 0.669686 12.3399 0.437405 12.5503L0.773145 12.9209C0.811481 12.8861 0.894593 12.882 0.942525 12.9239L1.27146 12.5473ZM2.80754 13.8445L1.26829 12.5446L0.945691 12.9266L2.48494 14.2265L2.80754 13.8445ZM2.39371 3.12588L2.39624 14.0355L2.89624 14.0354L2.89371 3.12576L2.39371 3.12588ZM3 2.55829C2.69544 2.55829 2.39371 2.78334 2.39371 3.12582H2.89371C2.89371 3.11653 2.89722 3.10293 2.9143 3.0878C2.93206 3.07206 2.96175 3.05829 3 3.05829V2.55829ZM3.60155 3.12537C3.60095 2.78771 3.30957 2.55829 3 2.55829V3.05829C3.03784 3.05829 3.06541 3.07173 3.08144 3.08621C3.09689 3.10017 3.10153 3.11409 3.10155 3.12626L3.60155 3.12537ZM3.60408 14.0354L3.60155 3.12576L3.10155 3.12588L3.10408 14.0355L3.60408 14.0354ZM4.73706 12.5444L3.19307 13.8442L3.51509 14.2267L5.05908 12.9268L4.73706 12.5444ZM5.56238 12.5501C5.33167 12.3416 4.96088 12.3413 4.7302 12.5503L5.06594 12.9209C5.10587 12.8847 5.18654 12.8844 5.22707 12.921L5.56238 12.5501Z" fill="#616F82"/>
</svg>
