<svg width="47" height="60" viewBox="0 0 47 60" fill="none" xmlns="http://www.w3.org/2000/svg">
<g id="Group 8">
<g id="Group">
<path id="Vector" d="M15.1341 16.1653L14.9688 16.3241V21.9788V27.6402L21.5098 27.6534C28.0045 27.6733 28.0574 27.6733 28.2359 27.8122C28.3352 27.8849 28.4807 28.0304 28.5534 28.1296C28.6923 28.3082 28.6923 28.3743 28.6923 32.5344C28.6923 36.6944 28.6923 36.7606 28.5534 36.9392C28.4807 37.0384 28.3352 37.1839 28.2359 37.2566C28.0574 37.3955 28.0045 37.3955 21.5098 37.4153L14.9688 37.4286V39.0556V40.6759L15.1341 40.8347L15.2928 41H24.4926H33.6923L33.851 40.8347L34.0164 40.6759V30.8479V21.0265H31.6685H29.314L29.1553 20.8611L28.9899 20.7024V18.3479V16H22.1447H15.2928L15.1341 16.1653Z" fill="#4F4F4F"/>
<path id="Vector_2" d="M30.0479 18.381V19.9683H31.6484H33.2555L31.6682 18.381C30.7952 17.5079 30.0743 16.7937 30.0677 16.7937C30.0545 16.7937 30.0479 17.5079 30.0479 18.381Z" fill="#4F4F4F"/>
<path id="Vector_3" d="M11 32.5344V36.3704H19.3333H27.6667V32.5344V28.6984H19.3333H11V32.5344Z" fill="#4F4F4F"/>
</g>
<rect id="Rectangle 116" x="0.5" y="0.5" width="46" height="59" rx="3.5" stroke="#4F4F4F" stroke-dasharray="2 2"/>
</g>
</svg>
