<svg width="22" height="22" viewBox="0 0 22 22" fill="none" xmlns="http://www.w3.org/2000/svg">
<path d="M9.9118 0.030632C5.54251 0.516045 1.98236 3.34313 0.566388 7.45117C0.15733 8.65122 0 9.61306 0 10.9929C0 12.0851 0.0584369 12.602 0.278699 13.5323C1.4789 18.6247 6.17633 22.2024 11.3952 21.9911C14.9688 21.8428 18.1604 20.0629 20.1383 17.1055C22.6465 13.357 22.6196 8.47144 20.0618 4.75892C18.6908 2.76783 16.695 1.27563 14.3845 0.516047C13.9619 0.376715 13.0854 0.169962 12.5639 0.0935555C11.9975 0.00815773 10.4512 -0.0322933 9.9118 0.030632ZM11.4536 3.55887C11.7368 3.65326 12.038 3.93192 12.1908 4.24205L12.3167 4.49824V8.74561V12.993L12.2088 13.2132C12.0695 13.4964 11.8312 13.7346 11.548 13.8694C11.3772 13.9548 11.2513 13.9773 10.9906 13.9818C10.4422 13.9818 10.0377 13.7346 9.76795 13.2267L9.66456 13.0379L9.65108 8.81752C9.63759 3.96788 9.61062 4.31846 10.0422 3.88698C10.1995 3.72967 10.3703 3.60831 10.4962 3.56337C10.7614 3.47348 11.1929 3.46898 11.4536 3.55887ZM11.6829 15.3212C12.029 15.4785 12.3122 15.7616 12.4875 16.1122C12.6224 16.3864 12.6314 16.4403 12.6314 16.8583C12.6314 17.2404 12.6134 17.3392 12.5235 17.5235C12.3572 17.8606 12.056 18.1617 11.7188 18.328C11.4491 18.4629 11.3817 18.4764 11.0131 18.4764C10.6445 18.4764 10.5771 18.4629 10.3074 18.328C9.70502 18.0314 9.36339 17.492 9.36339 16.8358C9.36339 16.2381 9.66456 15.7077 10.1725 15.4111C10.6265 15.1459 11.2199 15.1099 11.6829 15.3212Z" fill="currentColor" fill-opacity="0.8"/>
</svg>
